<svg xmlns="http://www.w3.org/2000/svg" viewBox="0 0 96 96"><path d="M14 0h68c7.73 0 14 6.27 14 14v68c0 7.73-6.27 14-14 14H14c-7.73 0-14-6.27-14-14V14C0 6.27 6.27 0 14 0L14 0z" fill="#f00"/><path d="M71.44 28.26C66.76 27 48 27 48 27s-18.76 0-23.44 1.26c-2.58 0.69-4.61 2.72-5.3 5.31C18 38.24 18 48 18 48s0 9.76 1.25 14.44c0.69 2.58 2.72 4.61 5.3 5.31C29.24 69 48 69 48 69s18.76 0 23.44-1.26c2.58-0.69 4.61-2.72 5.31-5.31C78 57.76 78 48 78 48s0-9.76-1.25-14.44C76.05 30.98 74.02 28.94 71.44 28.26zM42 57v-18l15.59 9L42 57z" fill="#fff"/></svg>