<svg xmlns="http://www.w3.org/2000/svg" viewBox="0 0 96 96"><path d="M14 0h68.001c7.732 0 13.999 6.267 13.999 13.999v68.001c0 7.732-6.267 13.999-13.999 13.999H14c-7.732 0-13.999-6.267-13.999-13.999V14C0 6.267 6.267 0 14 0L14 0z" fill="#4680c2"/><path d="M76.623 32.567c0.417-1.393 0-2.417-1.985-2.417h-6.564c-1.669 0-2.438 0.884-2.856 1.86 0 0-3.338 8.151-8.067 13.446 -1.529 1.533-2.225 2.021-3.06 2.021 -0.417 0-1.021-0.488-1.021-1.881V32.567c0-1.672-0.485-2.417-1.876-2.417H40.88c-1.043 0-1.67 0.776-1.67 1.512 0 1.585 2.365 1.951 2.609 6.41v9.684c0 2.123-0.383 2.509-1.218 2.509 -2.225 0-7.638-8.188-10.848-17.558 -0.629-1.821-1.26-2.557-2.938-2.557h-6.564C18.375 30.15 18 31.034 18 32.01c0 1.742 2.225 10.381 10.361 21.807 5.424 7.803 13.066 12.033 20.021 12.033 4.172 0 4.689-0.94 4.689-2.558v-5.897c0-1.88 0.395-2.254 1.717-2.254 0.973 0 2.642 0.487 6.537 4.249 4.45 4.459 5.184 6.459 7.688 6.459h6.564c1.875 0 2.812-0.94 2.272-2.793 -0.593-1.848-2.717-4.529-5.537-7.707 -1.53-1.812-3.826-3.762-4.52-4.738 -0.974-1.254-0.695-1.811 0-2.926C67.791 47.686 75.789 36.399 76.623 32.567" fill="#fff"/></svg>